<svg xmlns="http://www.w3.org/2000/svg" xmlns:xlink="http://www.w3.org/1999/xlink" version="1.1" id="Layer_1" x="0px" y="0px" width="100%" viewBox="0 0 500 500" enable-background="new 0 0 500 500" xml:space="preserve">
<path fill="#000000" opacity="1.000000" stroke="none" d=" M229.000000,501.000000   C152.666687,501.000000 76.833366,501.000000 1.000041,501.000000   C1.000027,334.333405 1.000027,167.666779 1.000014,1.000130   C167.666565,1.000087 334.333130,1.000087 500.999756,1.000043   C500.999847,167.666519 500.999847,334.333038 500.999939,500.999786   C410.500000,501.000000 320.000000,501.000000 229.000000,501.000000  M247.446655,267.723022   C247.316788,278.024078 247.379074,288.332489 246.984131,298.623352   C246.751511,304.683899 245.663986,310.607147 239.220581,313.702423   C238.538223,314.030212 238.398499,315.487610 237.785568,316.948975   C247.970062,316.948975 257.425018,316.948975 267.343231,317.489014   C274.158447,330.356415 282.326843,342.186279 293.367401,351.869232   C309.072357,365.643005 326.790924,370.360687 347.010498,363.956390   C348.147552,363.596252 349.136230,362.767792 350.193970,362.157318   C348.452148,361.189941 347.159637,361.070190 345.895325,361.208313   C331.991486,362.727295 319.931641,358.380371 309.653809,349.250366   C299.481384,340.213989 291.936249,329.083405 286.576019,317.028839   C295.881592,316.664490 305.272858,316.971771 314.475098,315.797607   C334.321106,313.265381 351.402863,304.819275 364.488770,289.364258   C380.729248,270.183563 385.932465,247.526840 383.550568,223.101944   C381.640411,203.514420 373.359894,186.681107 358.231506,173.676575   C342.105408,159.814362 322.766846,154.103119 302.043976,153.356644   C281.578461,152.619431 261.069733,153.076675 240.579956,153.032181   C239.820633,153.030518 239.060791,153.263184 237.604187,153.499969   C238.413376,154.866882 238.727875,156.214783 239.496872,156.565140   C244.623199,158.900681 246.487183,163.521561 246.605103,168.367798   C246.993515,184.328979 246.830658,200.303574 246.377197,215.575516   C243.765060,208.222275 241.515854,200.713760 238.452255,193.553680   C234.285278,183.814896 230.375900,173.793655 224.805298,164.860596   C209.376282,140.118469 186.916290,138.576538 162.913834,147.910294   C162.019699,148.257980 161.363312,149.217026 160.596130,149.891190   C160.831039,150.250656 161.065948,150.610138 161.300858,150.969620   C163.147858,150.457626 164.991257,149.932190 166.842422,149.435715   C183.269852,145.029999 197.385712,149.525406 207.212921,162.591217   C208.238968,163.955414 208.734467,166.668671 208.105682,168.189301   C189.902100,212.212921 171.568695,256.183136 153.134079,300.110718   C149.594528,308.545074 143.264832,313.717133 133.878799,314.657898   C132.902115,314.755829 131.958099,315.179504 130.998917,315.452026   C131.051651,315.766754 131.104401,316.081512 131.157135,316.396240   C146.497070,316.396240 161.836990,316.396240 178.009583,316.396240   C176.924957,315.369415 176.635315,314.852234 176.247955,314.763977   C165.915756,312.409454 163.674942,308.308838 167.449814,298.531708   C171.993881,286.762360 176.643906,275.032593 181.039673,263.208221   C182.083130,260.401337 183.512543,259.533142 186.466949,259.558319   C203.618866,259.704285 220.772675,259.629669 237.925842,259.629669   C245.501480,259.629669 245.501480,259.629700 247.446655,267.723022  M235.678192,351.850494   C235.675903,348.366852 235.787994,344.876556 235.586548,341.404449   C235.539352,340.591156 234.430664,339.839417 233.810333,339.059357   C233.204132,339.825226 232.240616,340.518738 232.067780,341.372375   C231.731552,343.032959 231.838745,344.783386 231.755280,346.652954   C227.741669,344.752411 227.257019,338.788330 221.788559,339.130524   C221.788559,344.285431 221.788559,348.899567 221.788559,353.691620   C228.154984,354.740967 223.460663,348.452026 226.735916,347.140503   C228.079956,348.737030 229.305588,350.777313 231.074966,352.077637   C232.152863,352.869751 234.068680,352.521698 235.678192,351.850494  M205.773331,343.153656   C204.264938,346.584290 202.756561,350.014893 201.248169,353.445526   C201.378235,353.905151 201.508286,354.364777 201.638351,354.824402   C206.725266,350.101624 211.873322,349.926331 217.234177,354.108276   C215.883499,349.613678 214.442169,345.929199 212.693573,342.396820   C212.044006,341.084656 210.674393,340.128967 209.633148,339.010742   C208.438141,340.153534 207.243118,341.296356 205.773331,343.153656  M249.824234,376.088318   C251.078079,376.411926 252.331909,376.735535 253.322006,376.991058   C253.322006,371.635895 253.322006,366.906067 253.322006,362.176239   C252.749664,362.161224 252.177322,362.146179 251.604980,362.131134   C251.323730,365.118195 251.042480,368.105225 250.672287,372.037018   C248.916016,368.981873 247.781464,366.611298 246.257660,364.524963   C245.495544,363.481537 244.022995,362.956970 242.871780,362.197723   C242.309723,363.386658 241.358231,364.545319 241.262894,365.770569   C241.031326,368.746552 241.100067,371.758911 241.266403,374.744476   C241.313141,375.583527 242.117538,376.380402 242.574402,377.196625   C243.025696,377.105225 243.476990,377.013824 243.928284,376.922424   C244.054092,374.141327 244.179916,371.360229 244.305740,368.579132   C244.612671,368.500671 244.919601,368.422180 245.226517,368.343719   C246.603973,370.716461 247.981445,373.089172 249.824234,376.088318  M137.641617,339.041046   C136.101013,340.698364 134.851425,351.964600 136.274017,353.276886   C136.717560,353.686066 138.793793,353.308960 138.876755,352.978760   C140.254486,347.495605 142.040543,349.938293 144.249435,352.452576   C145.065140,353.381042 146.691330,353.597473 149.159851,354.660645   C147.620728,352.047333 146.872086,350.776184 146.123444,349.505035   C147.570892,347.156769 148.996475,344.013458 147.984970,342.512604   C146.721130,340.637268 143.481079,340.041779 141.030762,339.050537   C140.316849,338.761719 139.386200,339.008575 137.641617,339.041046  M269.027344,338.998718   C265.935791,338.998718 262.844208,338.998718 259.639954,338.998718   C259.639954,344.323395 259.639954,349.023315 259.639954,353.529755   C263.658142,353.529755 267.290894,353.529755 270.923645,353.529755   C271.004944,353.041046 271.086243,352.552368 271.167542,352.063660   C269.705994,351.729279 268.222290,351.468597 266.789581,351.038208   C265.542725,350.663635 264.353424,350.097443 263.138702,349.615936   C264.275787,349.056885 265.394257,348.454987 266.555206,347.950806   C267.716248,347.446564 268.919800,347.040131 270.104706,346.590851   C269.975800,346.274719 269.846924,345.958557 269.718018,345.642426   C267.437683,345.092926 265.157318,344.543396 262.876984,343.993866   C263.000366,343.319611 263.123718,342.645325 263.247101,341.971069   C264.989075,341.971069 266.732361,342.013794 268.472687,341.960205   C270.629517,341.893799 271.699188,341.206543 269.027344,338.998718  M153.978058,348.418640   C153.978058,350.181580 153.978058,351.944519 153.978058,353.470520   C158.318710,353.470520 161.954605,353.470520 165.635666,353.470520   C165.530106,352.594025 165.547577,352.010559 165.444305,351.988342   C162.957642,351.453430 160.458084,350.978516 157.960846,350.492737   C158.723999,348.890259 159.869522,348.376343 161.036667,347.917267   C162.208572,347.456390 163.402023,347.050232 164.586029,346.620056   C164.472672,346.234131 164.359299,345.848206 164.245941,345.462311   C162.039337,345.096588 159.832733,344.730896 157.626114,344.365204   C157.638733,343.772308 157.651352,343.179413 157.663986,342.586517   C159.095444,342.375977 160.554565,342.274780 161.950012,341.921783   C163.163986,341.614655 164.305969,341.023010 165.479767,340.557068   C165.347824,340.136780 165.215866,339.716492 165.083923,339.296204   C161.534332,339.296204 157.984726,339.296204 153.978058,339.296204   C153.978058,342.204926 153.978058,344.833038 153.978058,348.418640  M227.806580,377.066681   C233.667511,376.953003 236.266418,375.163879 236.751099,370.648773   C237.197281,366.492035 235.511719,363.459137 231.378754,362.246948   C227.586700,361.134674 223.465179,363.143860 222.276337,366.448547   C220.676834,370.894775 222.311325,374.545410 227.806580,377.066681  M149.360901,376.615326   C150.503464,376.786560 151.865173,377.438385 152.746475,377.036591   C155.138550,375.945831 158.625290,374.850433 159.275864,372.939178   C160.137909,370.406769 159.700912,366.151459 158.003036,364.392242   C156.338837,362.667938 152.075653,362.095215 149.516266,362.872192   C144.075195,364.523895 143.842163,371.607788 149.360901,376.615326  M267.653107,365.554718   C268.633270,365.611359 269.613403,365.668030 270.593567,365.724670   C270.739685,365.253448 270.885834,364.782227 271.031952,364.311035   C269.406158,363.554321 267.614136,361.950470 266.191559,362.229553   C263.754456,362.707642 260.256226,363.842255 259.531158,365.639954   C258.266083,368.776581 261.615967,369.851288 264.215576,370.728241   C265.593170,371.192932 266.891327,371.893036 268.225372,372.486877   C268.055115,373.150330 267.884888,373.813751 267.714661,374.477173   C264.873199,374.087219 262.031738,373.697235 259.190277,373.307251   C259.001953,373.788208 258.813660,374.269196 258.625366,374.750153   C260.773590,375.587585 263.011353,377.256378 265.045807,377.037292   C267.242767,376.800720 270.343781,375.261139 271.101105,373.467072   C272.479004,370.202911 269.268219,369.132568 266.667023,368.228607   C265.307556,367.756165 264.018646,367.080750 262.697906,366.497040   C262.809814,366.043396 262.921753,365.589783 263.033661,365.136139   C264.341370,365.136139 265.649048,365.136139 267.653107,365.554718  M183.629761,371.320068   C183.604187,369.155365 183.733780,366.972260 183.479980,364.834656   C183.371857,363.923889 182.462265,363.108276 181.916870,362.249420   C181.317795,363.052551 180.289291,363.812073 180.202454,364.667236   C179.968231,366.974213 180.007843,369.330933 180.172546,371.651337   C180.424118,375.195221 182.459274,377.410706 186.004166,376.988098   C188.230576,376.722687 191.783936,375.619232 192.169312,374.195435   C193.194458,370.407745 192.825867,366.242859 193.011505,362.227936   C192.094711,362.204834 191.177917,362.181732 190.261139,362.158600   C190.161026,364.888336 190.297714,367.656433 189.863800,370.332031   C189.637039,371.730377 188.672638,373.586945 187.542557,374.070312   C186.702301,374.429657 185.060059,372.913879 183.629761,371.320068  M181.934341,340.431122   C178.475891,339.786163 175.017441,339.141205 171.176666,338.424957   C171.176666,344.224915 171.176666,348.929474 171.176666,353.662964   C175.074371,353.662964 178.618729,353.662964 182.163086,353.662964   C182.255630,353.069733 182.348190,352.476501 182.440735,351.883270   C180.559494,351.618378 178.646912,351.482178 176.810120,351.034790   C175.881973,350.808716 175.090942,350.019684 174.237915,349.485199   C175.100876,348.960266 175.907364,348.273071 176.840057,347.948486   C178.236755,347.462372 179.722122,347.231049 181.169769,346.891388   C181.092499,346.443634 181.015228,345.995880 180.937958,345.548157   C178.692810,345.170044 176.447678,344.791931 174.202530,344.413818   C174.150208,343.887177 174.097885,343.360504 174.045547,342.833862   C176.619278,342.318665 179.192993,341.803497 181.934341,340.431122  M136.216049,377.093658   C137.832886,375.586609 139.449738,374.079559 141.066589,372.572510   C139.497177,371.125519 138.035767,369.530396 136.322174,368.281128   C135.079895,367.375488 133.503448,366.928162 132.076004,366.276459   C132.254776,365.735840 132.433548,365.195221 132.612320,364.654572   C135.155899,365.058105 137.699463,365.461609 140.929031,365.973969   C140.073547,364.592407 139.655334,363.198944 139.099899,363.141907   C136.417221,362.866455 133.649872,362.655365 131.019302,363.081085   C130.194702,363.214539 128.867645,366.150940 129.202667,366.526398   C130.707565,368.212799 132.675034,369.517944 134.583252,370.800476   C135.659897,371.524017 136.945175,371.937073 138.136444,372.490021   C137.969666,373.149933 137.802872,373.809845 137.636093,374.469788   C134.794540,374.105194 131.952988,373.740601 129.073563,373.371155   C130.547256,376.819733 130.547256,376.819733 136.216049,377.093658  M243.974442,340.127594   C239.702393,344.332703 239.334717,348.834717 242.989182,352.191803   C246.316498,355.248383 251.113098,354.894501 254.920715,350.482697   C253.039734,350.589569 251.934601,350.854248 250.912094,350.667236   C248.953247,350.308929 246.572159,350.203461 245.273590,349.007721   C244.396042,348.199646 244.359894,344.976837 245.219391,344.138855   C246.475998,342.913696 248.851624,342.755951 250.793015,342.345337   C251.864029,342.118805 253.022308,342.304779 255.308167,342.304779   C250.771606,338.445221 249.918091,338.307404 243.974442,340.127594  M120.880058,339.024902   C120.429108,343.713470 119.951729,348.400055 119.599220,353.096008   C119.580032,353.351562 120.656311,353.990143 121.129974,353.909027   C121.783974,353.797058 122.689865,353.289246 122.883018,352.738739   C123.294518,351.565857 123.316444,350.256317 123.426750,349.494781   C125.974998,348.783356 128.010941,348.214935 130.046875,347.646545   C129.918411,347.186401 129.789932,346.726227 129.661469,346.266083   C123.650124,344.873901 123.650124,344.873901 123.717682,342.500061   C126.213760,341.978577 128.631653,341.473389 131.049545,340.968231   C130.906693,340.304108 130.763840,339.639954 130.620987,338.975830   C127.676346,338.975830 124.731712,338.975830 120.880058,339.024902  M197.776169,351.239929   C195.684433,351.084778 193.592697,350.929626 191.013153,350.738281   C191.013153,346.776031 191.013153,343.057281 191.013153,339.299530   C186.974106,339.689178 186.002716,345.065277 188.014175,354.046204   C190.692001,354.046204 193.483582,354.208282 196.233856,353.942749   C197.010300,353.867767 197.665894,352.541260 197.776169,351.239929  M208.919022,364.724121   C209.113220,364.036926 209.673340,362.930878 209.443008,362.729645   C207.789246,361.285034 199.232544,362.128113 196.948212,364.107086   C198.652206,364.595001 200.117569,365.014587 201.534210,365.420227   C203.195969,369.087585 200.078873,373.878571 204.398361,376.915009   C205.073746,373.903839 205.194031,370.968567 205.035660,368.048431   C204.909241,365.717590 205.717255,364.620056 208.919022,364.724121  M164.981339,375.224762   C168.329391,378.998627 172.131256,376.237152 175.704468,376.768372   C175.779922,376.199585 175.855377,375.630798 175.930832,375.062012   C173.420593,374.717255 170.910370,374.372498 168.215942,374.002411   C168.034058,369.927063 167.861435,366.059204 167.688812,362.191345   C166.897598,362.186066 166.106384,362.180786 165.315170,362.175507   C165.194794,366.210754 165.074417,370.246002 164.981339,375.224762  M217.008911,368.586975   C216.717087,366.437897 216.425278,364.288788 216.133453,362.139709   C215.653305,362.240417 215.173141,362.341095 214.692993,362.441803   C212.942841,369.322205 213.649109,375.579803 217.008926,377.106445   C217.008926,374.375336 217.008926,371.949585 217.008911,368.586975  z"/>
<path fill="#F9F9F9" opacity="1.000000" stroke="none" d=" M285.587616,317.117950   C291.936249,329.083405 299.481384,340.213989 309.653809,349.250366   C319.931641,358.380371 331.991486,362.727295 345.895325,361.208313   C347.159637,361.070190 348.452148,361.189941 350.193970,362.157318   C349.136230,362.767792 348.147552,363.596252 347.010498,363.956390   C326.790924,370.360687 309.072357,365.643005 293.367401,351.869232   C282.326843,342.186279 274.158447,330.356415 267.067474,316.875305   C260.387085,299.764923 253.982422,283.268219 247.577759,266.771515   C245.501480,259.629700 245.501480,259.629669 237.925842,259.629669   C220.772675,259.629669 203.618866,259.704285 186.466949,259.558319   C183.512543,259.533142 182.083130,260.401337 181.039673,263.208221   C176.643906,275.032593 171.993881,286.762360 167.449814,298.531708   C163.674942,308.308838 165.915756,312.409454 176.247955,314.763977   C176.635315,314.852234 176.924957,315.369415 178.009583,316.396240   C161.836990,316.396240 146.497070,316.396240 131.157135,316.396240   C131.104401,316.081512 131.051651,315.766754 130.998917,315.452026   C131.958099,315.179504 132.902115,314.755829 133.878799,314.657898   C143.264832,313.717133 149.594528,308.545074 153.134079,300.110718   C171.568695,256.183136 189.902100,212.212921 208.105682,168.189301   C208.734467,166.668671 208.238968,163.955414 207.212921,162.591217   C197.385712,149.525406 183.269852,145.029999 166.842422,149.435715   C164.991257,149.932190 163.147858,150.457626 161.300858,150.969620   C161.065948,150.610138 160.831039,150.250656 160.596130,149.891190   C161.363312,149.217026 162.019699,148.257980 162.913834,147.910294   C186.916290,138.576538 209.376282,140.118469 224.805298,164.860596   C230.375900,173.793655 234.285278,183.814896 238.452255,193.553680   C241.515854,200.713760 243.765060,208.222275 246.592865,216.226959   C247.584900,219.054794 248.356674,221.232864 249.138367,223.407364   C255.001602,239.717026 260.866791,256.025940 266.794159,272.692688   C272.447815,286.523041 278.038727,299.995880 283.673218,313.767700   C284.340393,315.083801 284.964020,316.100861 285.587616,317.117950  M201.710602,210.206787   C196.249496,224.163971 190.788376,238.121140 185.266449,252.233704   C204.888046,252.233704 223.601410,252.233704 243.017319,252.233704   C234.034607,226.414337 225.244919,201.149734 216.455215,175.885117   C215.966522,175.966934 215.477844,176.048752 214.989166,176.130554   C210.641846,187.243759 206.294525,198.356949 201.710602,210.206787  z"/>
<path fill="#03959B" opacity="1.000000" stroke="none" d=" M286.081818,317.073395   C284.964020,316.100861 284.340393,315.083801 284.168640,313.722290   C292.109680,313.272430 299.609375,313.383942 307.086151,313.022095   C332.682404,311.783264 351.553772,297.444489 358.408905,273.068146   C360.902924,264.199524 362.091125,254.786133 362.537476,245.556580   C363.436340,226.968719 360.090393,209.051559 350.422211,192.834503   C337.019531,170.353348 316.553986,159.185455 290.925476,157.090073   C283.075623,156.448288 275.128937,156.990479 266.887787,156.990479   C266.887787,159.528702 266.890259,161.503845 266.887451,163.479004   C266.835815,199.764374 266.783539,236.049744 266.731384,272.335114   C260.866791,256.025940 255.001602,239.717026 249.138367,223.407364   C248.356674,221.232864 247.584900,219.054794 246.844025,216.575714   C246.830658,200.303574 246.993515,184.328979 246.605103,168.367798   C246.487183,163.521561 244.623199,158.900681 239.496872,156.565140   C238.727875,156.214783 238.413376,154.866882 237.604187,153.499969   C239.060791,153.263184 239.820633,153.030518 240.579956,153.032181   C261.069733,153.076675 281.578461,152.619431 302.043976,153.356644   C322.766846,154.103119 342.105408,159.814362 358.231506,173.676575   C373.359894,186.681107 381.640411,203.514420 383.550568,223.101944   C385.932465,247.526840 380.729248,270.183563 364.488770,289.364258   C351.402863,304.819275 334.321106,313.265381 314.475098,315.797607   C305.272858,316.971771 295.881592,316.664490 286.081818,317.073395  z"/>
<path fill="#06989D" opacity="1.000000" stroke="none" d=" M247.512207,267.247253   C253.982422,283.268219 260.387085,299.764923 266.835876,316.605286   C257.425018,316.948975 247.970062,316.948975 237.785568,316.948975   C238.398499,315.487610 238.538223,314.030212 239.220581,313.702423   C245.663986,310.607147 246.751511,304.683899 246.984131,298.623352   C247.379074,288.332489 247.316788,278.024078 247.512207,267.247253  z"/>
<path fill="#038C92" opacity="1.000000" stroke="none" d=" M235.643158,352.268127   C234.068680,352.521698 232.152863,352.869751 231.074966,352.077637   C229.305588,350.777313 228.079956,348.737030 226.735916,347.140503   C223.460663,348.452026 228.154984,354.740967 221.788559,353.691620   C221.788559,348.899567 221.788559,344.285431 221.788559,339.130524   C227.257019,338.788330 227.741669,344.752411 231.755280,346.652954   C231.838745,344.783386 231.731552,343.032959 232.067780,341.372375   C232.240616,340.518738 233.204132,339.825226 233.810333,339.059357   C234.430664,339.839417 235.539352,340.591156 235.586548,341.404449   C235.787994,344.876556 235.675903,348.366852 235.643158,352.268127  z"/>
<path fill="#038B90" opacity="1.000000" stroke="none" d=" M205.910721,342.796417   C207.243118,341.296356 208.438141,340.153534 209.633148,339.010742   C210.674393,340.128967 212.044006,341.084656 212.693573,342.396820   C214.442169,345.929199 215.883499,349.613678 217.234177,354.108276   C211.873322,349.926331 206.725266,350.101624 201.638351,354.824402   C201.508286,354.364777 201.378235,353.905151 201.248169,353.445526   C202.756561,350.014893 204.264938,346.584290 205.910721,342.796417  z"/>
<path fill="#03888D" opacity="1.000000" stroke="none" d=" M249.591568,375.775116   C247.981445,373.089172 246.603973,370.716461 245.226517,368.343719   C244.919601,368.422180 244.612671,368.500671 244.305740,368.579132   C244.179916,371.360229 244.054092,374.141327 243.928284,376.922424   C243.476990,377.013824 243.025696,377.105225 242.574402,377.196625   C242.117538,376.380402 241.313141,375.583527 241.266403,374.744476   C241.100067,371.758911 241.031326,368.746552 241.262894,365.770569   C241.358231,364.545319 242.309723,363.386658 242.871765,362.197723   C244.022995,362.956970 245.495544,363.481537 246.257660,364.524963   C247.781464,366.611298 248.916016,368.981873 250.672287,372.037018   C251.042480,368.105225 251.323730,365.118195 251.604980,362.131134   C252.177322,362.146179 252.749664,362.161224 253.322006,362.176239   C253.322006,366.906067 253.322006,371.635895 253.322006,376.991058   C252.331909,376.735535 251.078079,376.411926 249.591568,375.775116  z"/>
<path fill="#039196" opacity="1.000000" stroke="none" d=" M138.098267,339.025452   C139.386200,339.008575 140.316849,338.761719 141.030762,339.050537   C143.481079,340.041779 146.721130,340.637268 147.984970,342.512604   C148.996475,344.013458 147.570892,347.156769 146.123444,349.505035   C146.872086,350.776184 147.620728,352.047333 149.159851,354.660645   C146.691330,353.597473 145.065140,353.381042 144.249435,352.452576   C142.040543,349.938293 140.254486,347.495605 138.876755,352.978760   C138.793793,353.308960 136.717560,353.686066 136.274017,353.276886   C134.851425,351.964600 136.101013,340.698364 138.098267,339.025452  M142.256180,342.007446   C137.797577,341.742065 139.260132,344.475067 139.694839,347.616302   C141.651581,346.823059 143.186966,346.200623 144.722336,345.578186   C144.172668,344.423340 143.623001,343.268494 142.256180,342.007446  z"/>
<path fill="#03888D" opacity="1.000000" stroke="none" d=" M269.461304,339.059265   C271.699188,341.206543 270.629517,341.893799 268.472687,341.960205   C266.732361,342.013794 264.989075,341.971069 263.247101,341.971069   C263.123718,342.645325 263.000366,343.319611 262.876984,343.993866   C265.157318,344.543396 267.437683,345.092926 269.718018,345.642426   C269.846924,345.958557 269.975800,346.274719 270.104706,346.590851   C268.919800,347.040131 267.716248,347.446564 266.555206,347.950806   C265.394257,348.454987 264.275787,349.056885 263.138702,349.615906   C264.353424,350.097443 265.542725,350.663635 266.789581,351.038208   C268.222290,351.468597 269.705994,351.729279 271.167542,352.063660   C271.086243,352.552368 271.004944,353.041046 270.923645,353.529755   C267.290894,353.529755 263.658142,353.529755 259.639954,353.529755   C259.639954,349.023315 259.639954,344.323395 259.639954,338.998718   C262.844208,338.998718 265.935791,338.998718 269.461304,339.059265  z"/>
<path fill="#039096" opacity="1.000000" stroke="none" d=" M153.978058,347.939880   C153.978058,344.833038 153.978058,342.204926 153.978058,339.296204   C157.984726,339.296204 161.534332,339.296204 165.083923,339.296204   C165.215866,339.716492 165.347824,340.136780 165.479767,340.557068   C164.305969,341.023010 163.163986,341.614655 161.950012,341.921783   C160.554565,342.274780 159.095444,342.375977 157.663986,342.586517   C157.651352,343.179413 157.638733,343.772308 157.626114,344.365204   C159.832733,344.730896 162.039337,345.096588 164.245941,345.462311   C164.359299,345.848206 164.472672,346.234131 164.586029,346.620056   C163.402023,347.050232 162.208572,347.456390 161.036667,347.917267   C159.869522,348.376343 158.723999,348.890259 157.960846,350.492737   C160.458084,350.978516 162.957642,351.453430 165.444305,351.988342   C165.547577,352.010559 165.530106,352.594025 165.635666,353.470520   C161.954605,353.470520 158.318710,353.470520 153.978058,353.470520   C153.978058,351.944519 153.978058,350.181580 153.978058,347.939880  z"/>
<path fill="#03898E" opacity="1.000000" stroke="none" d=" M227.397415,377.019592   C222.311325,374.545410 220.676834,370.894775 222.276337,366.448547   C223.465179,363.143860 227.586700,361.134674 231.378754,362.246948   C235.511719,363.459137 237.197281,366.492035 236.751099,370.648773   C236.266418,375.163879 233.667511,376.953003 227.397415,377.019592  M226.479935,365.789948   C226.056702,366.493530 225.166992,367.298615 225.294006,367.882477   C225.752655,369.990662 226.211594,372.263855 227.401459,373.962738   C227.847305,374.599304 231.282532,374.326172 231.637680,373.612885   C232.578430,371.723358 233.412689,369.008636 232.682388,367.315460   C232.144974,366.069519 229.073380,365.916687 226.479935,365.789948  z"/>
<path fill="#03888D" opacity="1.000000" stroke="none" d=" M149.011719,376.416016   C143.842163,371.607788 144.075195,364.523895 149.516266,362.872192   C152.075653,362.095215 156.338837,362.667938 158.003036,364.392242   C159.700912,366.151459 160.137909,370.406769 159.275864,372.939178   C158.625290,374.850433 155.138550,375.945831 152.746475,377.036591   C151.865173,377.438385 150.503464,376.786560 149.011719,376.416016  M148.739777,369.443420   C148.674240,372.263580 149.719025,374.877014 152.711807,374.477875   C154.292114,374.267120 156.397339,371.776794 156.694412,370.046021   C156.950943,368.551361 155.371002,365.799438 153.917633,365.159393   C151.299515,364.006439 149.090225,365.336792 148.739777,369.443420  z"/>
<path fill="#03898E" opacity="1.000000" stroke="none" d=" M267.304932,365.345428   C265.649048,365.136139 264.341370,365.136139 263.033661,365.136139   C262.921753,365.589783 262.809814,366.043396 262.697906,366.497040   C264.018646,367.080750 265.307556,367.756165 266.667023,368.228607   C269.268219,369.132568 272.479004,370.202911 271.101105,373.467072   C270.343781,375.261139 267.242767,376.800720 265.045807,377.037292   C263.011353,377.256378 260.773590,375.587585 258.625366,374.750153   C258.813660,374.269196 259.001953,373.788208 259.190277,373.307251   C262.031738,373.697235 264.873199,374.087219 267.714661,374.477173   C267.884888,373.813751 268.055115,373.150330 268.225372,372.486877   C266.891327,371.893036 265.593170,371.192932 264.215576,370.728241   C261.615967,369.851288 258.266083,368.776581 259.531158,365.639954   C260.256226,363.842255 263.754456,362.707642 266.191559,362.229553   C267.614136,361.950470 269.406158,363.554321 271.031952,364.311035   C270.885834,364.782227 270.739685,365.253448 270.593567,365.724670   C269.613403,365.668030 268.633270,365.611359 267.304932,365.345428  z"/>
<path fill="#038C92" opacity="1.000000" stroke="none" d=" M183.702393,371.776672   C185.060059,372.913879 186.702301,374.429657 187.542557,374.070312   C188.672638,373.586945 189.637039,371.730377 189.863800,370.332031   C190.297714,367.656433 190.161026,364.888336 190.261139,362.158600   C191.177917,362.181732 192.094711,362.204834 193.011505,362.227936   C192.825867,366.242859 193.194458,370.407745 192.169312,374.195435   C191.783936,375.619232 188.230576,376.722687 186.004166,376.988098   C182.459274,377.410706 180.424118,375.195221 180.172546,371.651337   C180.007843,369.330933 179.968231,366.974213 180.202454,364.667236   C180.289291,363.812073 181.317795,363.052551 181.916870,362.249420   C182.462265,363.108276 183.371857,363.923889 183.479980,364.834656   C183.733780,366.972260 183.604187,369.155365 183.702393,371.776672  z"/>
<path fill="#039196" opacity="1.000000" stroke="none" d=" M181.850525,340.859711   C179.192993,341.803497 176.619278,342.318665 174.045547,342.833862   C174.097885,343.360504 174.150208,343.887177 174.202530,344.413818   C176.447678,344.791931 178.692810,345.170044 180.937958,345.548157   C181.015228,345.995880 181.092499,346.443634 181.169769,346.891388   C179.722122,347.231049 178.236755,347.462372 176.840057,347.948486   C175.907364,348.273071 175.100876,348.960266 174.237915,349.485199   C175.090942,350.019684 175.881973,350.808716 176.810120,351.034790   C178.646912,351.482178 180.559494,351.618378 182.440735,351.883270   C182.348190,352.476501 182.255630,353.069733 182.163086,353.662964   C178.618729,353.662964 175.074371,353.662964 171.176666,353.662964   C171.176666,348.929474 171.176666,344.224915 171.176666,338.424957   C175.017441,339.141205 178.475891,339.786163 181.850525,340.859711  z"/>
<path fill="#038C91" opacity="1.000000" stroke="none" d=" M135.790314,377.113129   C130.547256,376.819733 130.547256,376.819733 129.073563,373.371155   C131.952988,373.740601 134.794540,374.105194 137.636093,374.469788   C137.802872,373.809845 137.969666,373.149933 138.136444,372.490021   C136.945175,371.937073 135.659897,371.524017 134.583252,370.800476   C132.675034,369.517944 130.707565,368.212799 129.202667,366.526398   C128.867645,366.150940 130.194702,363.214539 131.019302,363.081085   C133.649872,362.655365 136.417221,362.866455 139.099899,363.141907   C139.655334,363.198944 140.073547,364.592407 140.929031,365.973969   C137.699463,365.461609 135.155899,365.058105 132.612320,364.654572   C132.433548,365.195221 132.254776,365.735840 132.076004,366.276459   C133.503448,366.928162 135.079895,367.375488 136.322174,368.281128   C138.035767,369.530396 139.497177,371.125519 141.066589,372.572510   C139.449738,374.079559 137.832886,375.586609 135.790314,377.113129  z"/>
<path fill="#038C91" opacity="1.000000" stroke="none" d=" M244.329300,339.948425   C249.918091,338.307404 250.771606,338.445221 255.308167,342.304779   C253.022308,342.304779 251.864029,342.118805 250.793015,342.345337   C248.851624,342.755951 246.475998,342.913696 245.219391,344.138855   C244.359894,344.976837 244.396042,348.199646 245.273590,349.007721   C246.572159,350.203461 248.953247,350.308929 250.912094,350.667236   C251.934601,350.854248 253.039734,350.589569 254.920715,350.482697   C251.113098,354.894501 246.316498,355.248383 242.989182,352.191803   C239.334717,348.834717 239.702393,344.332703 244.329300,339.948425  z"/>
<path fill="#03858A" opacity="1.000000" stroke="none" d=" M121.333572,339.000366   C124.731712,338.975830 127.676346,338.975830 130.620987,338.975830   C130.763840,339.639954 130.906693,340.304108 131.049545,340.968231   C128.631653,341.473389 126.213760,341.978577 123.717682,342.500061   C123.650124,344.873901 123.650124,344.873901 129.661469,346.266083   C129.789932,346.726227 129.918411,347.186401 130.046875,347.646545   C128.010941,348.214935 125.974998,348.783356 123.426750,349.494781   C123.316444,350.256317 123.294518,351.565857 122.883018,352.738739   C122.689865,353.289246 121.783974,353.797058 121.129974,353.909027   C120.656311,353.990143 119.580032,353.351562 119.599220,353.096008   C119.951729,348.400055 120.429108,343.713470 121.333572,339.000366  z"/>
<path fill="#03858A" opacity="1.000000" stroke="none" d=" M198.076538,351.514343   C197.665894,352.541260 197.010300,353.867767 196.233856,353.942749   C193.483582,354.208282 190.692001,354.046204 188.014175,354.046204   C186.002716,345.065277 186.974106,339.689178 191.013153,339.299530   C191.013153,343.057281 191.013153,346.776031 191.013153,350.738281   C193.592697,350.929626 195.684433,351.084778 198.076538,351.514343  z"/>
<path fill="#03888D" opacity="1.000000" stroke="none" d=" M208.509674,364.798431   C205.717255,364.620056 204.909241,365.717590 205.035660,368.048431   C205.194031,370.968567 205.073746,373.903839 204.398361,376.915009   C200.078873,373.878571 203.195969,369.087585 201.534210,365.420227   C200.117569,365.014587 198.652206,364.595001 196.948212,364.107086   C199.232544,362.128113 207.789246,361.285034 209.443008,362.729645   C209.673340,362.930878 209.113220,364.036926 208.509674,364.798431  z"/>
<path fill="#03959B" opacity="1.000000" stroke="none" d=" M164.967697,374.752991   C165.074417,370.246002 165.194794,366.210754 165.315170,362.175507   C166.106384,362.180786 166.897598,362.186066 167.688812,362.191345   C167.861435,366.059204 168.034058,369.927063 168.215942,374.002411   C170.910370,374.372498 173.420593,374.717255 175.930832,375.062012   C175.855377,375.630798 175.779922,376.199585 175.704468,376.768372   C172.131256,376.237152 168.329391,378.998627 164.967697,374.752991  z"/>
<path fill="#03959B" opacity="1.000000" stroke="none" d=" M217.008911,369.055420   C217.008926,371.949585 217.008926,374.375336 217.008926,377.106445   C213.649109,375.579803 212.942841,369.322205 214.692993,362.441803   C215.173141,362.341095 215.653305,362.240417 216.133453,362.139709   C216.425278,364.288788 216.717087,366.437897 217.008911,369.055420  z"/>
<path fill="#000000" opacity="1.000000" stroke="none" d=" M266.794189,272.692688   C266.783539,236.049744 266.835815,199.764374 266.887451,163.479004   C266.890259,161.503845 266.887787,159.528702 266.887787,156.990479   C275.128937,156.990479 283.075623,156.448288 290.925476,157.090073   C316.553986,159.185455 337.019531,170.353348 350.422211,192.834503   C360.090393,209.051559 363.436340,226.968719 362.537476,245.556580   C362.091125,254.786133 360.902924,264.199524 358.408905,273.068146   C351.553772,297.444489 332.682404,311.783264 307.086151,313.022095   C299.609375,313.383942 292.109680,313.272430 284.125061,313.423279   C278.038727,299.995880 272.447815,286.523041 266.794189,272.692688  z"/>
<path fill="#050505" opacity="1.000000" stroke="none" d=" M201.828903,209.838470   C206.294525,198.356949 210.641846,187.243759 214.989166,176.130554   C215.477844,176.048752 215.966522,175.966934 216.455215,175.885117   C225.244919,201.149734 234.034607,226.414337 243.017319,252.233704   C223.601410,252.233704 204.888046,252.233704 185.266449,252.233704   C190.788376,238.121140 196.249496,224.163971 201.828903,209.838470  z"/>
<path fill="#000606" opacity="1.000000" stroke="none" d=" M142.664764,342.060547   C143.623001,343.268494 144.172668,344.423340 144.722336,345.578186   C143.186966,346.200623 141.651581,346.823059 139.694839,347.616302   C139.260132,344.475067 137.797577,341.742065 142.664764,342.060547  z"/>
<path fill="#000606" opacity="1.000000" stroke="none" d=" M226.805496,365.533356   C229.073380,365.916687 232.144974,366.069519 232.682388,367.315460   C233.412689,369.008636 232.578430,371.723358 231.637680,373.612885   C231.282532,374.326172 227.847305,374.599304 227.401459,373.962738   C226.211594,372.263855 225.752655,369.990662 225.294006,367.882477   C225.166992,367.298615 226.056702,366.493530 226.805496,365.533356  z"/>
<path fill="#000606" opacity="1.000000" stroke="none" d=" M148.764908,369.025635   C149.090225,365.336792 151.299515,364.006439 153.917633,365.159393   C155.371002,365.799438 156.950943,368.551361 156.694412,370.046021   C156.397339,371.776794 154.292114,374.267120 152.711807,374.477875   C149.719025,374.877014 148.674240,372.263580 148.764908,369.025635  z"/>
</svg>